<mxfile host="65bd71144e">
    <diagram id="PxJGB8x61unmiQBq1MSJ" name="第 1 页">
        <mxGraphModel dx="1315" dy="878" grid="1" gridSize="10" guides="1" tooltips="1" connect="1" arrows="1" fold="1" page="1" pageScale="1" pageWidth="827" pageHeight="1169" math="0" shadow="0">
            <root>
                <mxCell id="0"/>
                <mxCell id="1" parent="0"/>
                <mxCell id="2" value="d" style="whiteSpace=wrap;html=1;" vertex="1" parent="1">
                    <mxGeometry x="50" y="10" width="670" height="550" as="geometry"/>
                </mxCell>
                <mxCell id="3" value="Gateway" style="whiteSpace=wrap;html=1;fillColor=#008a00;fontColor=#ffffff;strokeColor=#005700;" vertex="1" parent="1">
                    <mxGeometry x="70" y="90" width="130" height="30" as="geometry"/>
                </mxCell>
                <mxCell id="4" value="Parser" style="whiteSpace=wrap;html=1;fillColor=#008a00;fontColor=#ffffff;strokeColor=#005700;" vertex="1" parent="1">
                    <mxGeometry x="70" y="170" width="130" height="30" as="geometry"/>
                </mxCell>
                <mxCell id="5" value="CellData" style="whiteSpace=wrap;html=1;fillColor=#647687;fontColor=#ffffff;strokeColor=#314354;" vertex="1" parent="1">
                    <mxGeometry x="70" y="30" width="130" height="30" as="geometry"/>
                </mxCell>
                <mxCell id="6" value="Tasks" style="whiteSpace=wrap;html=1;fillColor=#008a00;fontColor=#ffffff;strokeColor=#005700;" vertex="1" parent="1">
                    <mxGeometry x="70" y="240" width="130" height="30" as="geometry"/>
                </mxCell>
                <mxCell id="7" value="TaslList" style="whiteSpace=wrap;html=1;fillColor=#1ba1e2;fontColor=#ffffff;strokeColor=#006EAF;" vertex="1" parent="1">
                    <mxGeometry x="220" y="210" width="130" height="30" as="geometry"/>
                </mxCell>
                <mxCell id="8" value="TaskInfo" style="whiteSpace=wrap;html=1;fillColor=#1ba1e2;fontColor=#ffffff;strokeColor=#006EAF;" vertex="1" parent="1">
                    <mxGeometry x="220" y="270" width="130" height="30" as="geometry"/>
                </mxCell>
            </root>
        </mxGraphModel>
    </diagram>
</mxfile>